{"title":"Kill.List.2011.1080p.BluRay.x264.DTS-FGT","uid":13418874,"size":9636674240,"categoryP":"video","categoryS":"hd___movies","magnet":"?xt=urn:btih:357f48d1bf984881a27154bd72ddf7dde9a6506d&amp;dn=Kill.List.2011.1080p.BluRay.x264.DTS-FGT&amp;tr=udp%3A%2F%2Ftracker.leechers-paradise.org%3A6969&amp;tr=udp%3A%2F%2Fzer0day.ch%3A1337&amp;tr=udp%3A%2F%2Fopen.demonii.com%3A1337&amp;tr=udp%3A%2F%2Ftracker.coppersurfer.tk%3A6969&amp;tr=udp%3A%2F%2Fexodus.desync.com%3A6969","seeders":1,"leechers":0,"uploader":null,"files":3,"time":1454528264,"description":"Video\r\nID                                       : 1\r\nFormat                                   : AVC\r\nFormat/Info                              : Advanced Video Codec\r\nFormat profile                           :   \r\nFormat settings, CABAC                   : Yes\r\nFormat settings, ReFrames                : 5 frames\r\nCodec ID                                 : V_MPEG4/ISO/AVC\r\nDuration                                 : 1h 35mn\r\nBit rate                                 : 11.7 Mbps\r\nWidth                                    : 1 920 pixels\r\nHeight                                   : 816 pixels\r\nDisplay aspect ratio                     : 2.35:1\r\nFrame rate mode                          : Constant\r\nFrame rate                               : 24.000 fps\r\nColor space                              : YUV\r\nChroma subsampling                       : 4:2:0\r\nBit depth                                : 8 bits\r\nScan type                                : Progressive\r\nBits/(Pixel*Frame)                       : 0.310\r\nStream size                              : 7.79 GiB (87%)\r\nWriting library                          : x264 core 133 r2334+704+50 a7549b7 tMod [   X86_64]\r\nEncoding settings                        : opencl=1 / cabac=1 / ref=5 / deblock=1:-3:-3 / analyse=0x3:0x133 / me=umh / subme=11 / psy=1 / fade_compensate=0.00 / psy_rd=1.10:0.25 / mixed_ref=1 / me_range=64 / chroma_me=1 / trellis=2 / 8x8dct=1 / cqm=0 / deadzone=21,11 / fast_pskip=0 / chroma_qp_offset=-4 / threads=12 / lookahead_threads=3 / sliced_threads=0 / nr=0 / decimate=1 / interlaced=0 / bluray_compat=0 / constrained_intra=0 / fgo=0 / bframes=16 / b_pyramid=2 / b_adapt=2 / b_bias=0 / direct=3 / weightb=1 / open_gop=0 / weightp=2 / keyint=240 / keyint_min=24 / scenecut=40 / intra_refresh=0 / rc_lookahead=240 / rc=crf / mbtree=1 / crf=17.3500 / qcomp=0.60 / qpmin=0 / qpmax=69 / qpstep=4 / ip_ratio=1.40 / aq=2:1.00 / aq-sensitivity=10.00 / aq-factor=1.00:1.00:1.00 / aq2=0 / aq3=0\r\nLanguage                                 : English\r\nDefault                                  : Yes\r\nForced                                   : No\r\n\r\nAudio\r\nID                                       : 2\r\nFormat                                   : DTS\r\nFormat/Info                              : Digital Theater Systems\r\nMode                                     : 16\r\nFormat settings, Endianness              : Big\r\nCodec ID                                 : A_DTS\r\nDuration                                 : 1h 35mn\r\nBit rate mode                            : Constant\r\nBit rate                                 : 1 509 Kbps\r\nChannel(s)                               : 6 channels\r\nChannel positions                        : Front: L C R, Side: L R, LFE\r\nSampling rate                            : 48.0 KHz\r\nFrame rate                               : 93.750 fps (512 spf)\r\nBit depth                                : 24 bits\r\nCompression mode                         : Lossy\r\nStream size                              : 1.01 GiB (11%)\r\nLanguage                                 : English\r\nDefault                                  : Yes\r\nForced                                   : No\r\n\r\nText #1\r\nID                                       : 3\r\nFormat                                   : PGS\r\nMuxing mode                              : zlib\r\nCodec ID                                 : S_HDMV/PGS\r\nCodec ID/Info                            : Picture based subtitle format used on BDs/HD-DVDs\r\nTitle                                    : English-PGS\r\nLanguage                                 : English\r\nDefault                                  : No\r\nForced                                   : No\r\n\r\nText #2\r\nID                                       : 4\r\nFormat                                   : PGS\r\nMuxing mode                              : zlib\r\nCodec ID                                 : S_HDMV/PGS\r\nCodec ID/Info                            : Picture based subtitle format used on BDs/HD-DVDs\r\nTitle                                    : Spanish-PGS\r\nLanguage                                 : Spanish\r\nDefault                                  : No\r\nForced                                   : No","torrent":{"xt":"urn:btih:357f48d1bf984881a27154bd72ddf7dde9a6506d","amp;dn":"Kill.List.2011.1080p.BluRay.x264.DTS-FGT","amp;tr":["udp%3A%2F%2Ftracker.leechers-paradise.org%3A6969","udp%3A%2F%2Fzer0day.ch%3A1337","udp%3A%2F%2Fopen.demonii.com%3A1337","udp%3A%2F%2Ftracker.coppersurfer.tk%3A6969","udp%3A%2F%2Fexodus.desync.com%3A6969"],"infoHash":"357f48d1bf984881a27154bd72ddf7dde9a6506d","infoHashBuffer":{"type":"Buffer","data":[53,127,72,209,191,152,72,129,162,113,84,189,114,221,247,221,233,166,80,109]},"announce":[],"urlList":[]}}